<?xml version="1.0" standalone="no"?>
<!DOCTYPE svg PUBLIC "-//W3C//DTD SVG 20010904//EN"
 "http://www.w3.org/TR/2001/REC-SVG-20010904/DTD/svg10.dtd">
<svg version="1.0" xmlns="http://www.w3.org/2000/svg"
 width="1588.000000pt" height="2541.000000pt" viewBox="0 0 1588.000000 2541.000000"
 preserveAspectRatio="xMidYMid meet">
<metadata>
Created by potrace 1.16, written by Peter Selinger 2001-2019
</metadata>
<g transform="translate(0.000000,2541.000000) scale(0.100000,-0.100000)"
fill="#000000" stroke="none">
<path d="M8093 24253 c-83 -41 -49 -78 183 -201 267 -142 256 -134 461 -340
216 -217 259 -269 328 -397 26 -49 59 -105 73 -124 14 -18 35 -61 47 -95 13
-33 35 -90 50 -125 51 -121 59 -195 59 -546 l0 -320 -31 -152 c-17 -83 -38
-164 -47 -181 -8 -16 -20 -58 -25 -93 -13 -76 -30 -140 -78 -274 -41 -117 -69
-169 -135 -248 -51 -62 -78 -107 -78 -131 0 -31 -23 -64 -56 -80 -47 -22 -159
-22 -168 0 -7 19 4 42 34 69 40 36 105 128 187 265 86 143 210 439 231 550 6
30 19 96 29 145 13 67 18 130 16 245 -3 263 -20 368 -94 565 -17 44 -36 100
-43 125 -15 53 -67 158 -107 217 -16 23 -38 61 -49 85 -36 77 -112 172 -245
308 -246 252 -309 307 -515 449 -81 56 -217 116 -370 163 -71 22 -90 23 -375
23 -218 0 -349 -5 -480 -18 -287 -29 -302 -32 -388 -77 -56 -29 -98 -43 -147
-49 -130 -17 -218 -81 -206 -150 5 -34 2 -40 -54 -93 -33 -31 -95 -78 -137
-104 -43 -26 -115 -75 -161 -107 l-83 -60 -32 31 c-18 18 -39 32 -45 32 -29 0
-71 -33 -154 -117 -112 -114 -162 -176 -237 -293 -102 -159 -136 -231 -211
-445 -21 -60 -45 -126 -53 -145 -8 -19 -20 -69 -26 -110 -5 -41 -14 -97 -20
-125 -20 -104 -6 -531 20 -588 16 -35 31 -34 66 3 30 32 40 58 42 106 1 17 7
44 15 60 10 21 15 95 20 262 4 175 10 241 21 269 12 29 18 34 28 24 13 -13 24
-300 27 -701 1 -168 5 -235 15 -265 8 -22 15 -58 15 -80 0 -143 80 -275 287
-475 187 -181 420 -328 559 -350 62 -10 94 -25 94 -44 0 -35 -196 -193 -380
-305 -141 -86 -357 -251 -445 -341 -38 -39 -97 -93 -129 -121 -72 -61 -77 -58
-95 59 -17 108 -41 204 -56 222 -7 8 -15 30 -19 48 -8 47 -128 282 -191 377
-104 157 -343 403 -434 447 -38 19 -63 23 -139 23 -86 0 -95 -2 -113 -24 -25
-31 -24 -44 7 -90 31 -48 26 -76 -24 -126 -39 -39 -214 -146 -349 -213 -45
-23 -87 -50 -95 -60 -7 -11 -26 -26 -43 -35 -16 -8 -82 -60 -145 -114 -183
-158 -532 -443 -564 -460 -25 -13 -30 -13 -44 1 -13 13 -13 18 -1 35 24 34
365 329 569 492 296 237 497 438 488 486 -2 10 -15 24 -30 31 -51 24 -92 -11
-160 -137 -32 -58 -53 -65 -62 -20 -10 50 11 105 59 159 27 30 45 60 45 75 0
20 -6 25 -44 30 -106 16 -227 -14 -394 -99 -59 -30 -92 -39 -164 -47 -120 -14
-252 -67 -373 -153 -27 -19 -67 -47 -88 -61 -121 -82 -356 -346 -421 -472 -33
-64 -10 -126 54 -143 21 -6 42 -15 45 -20 20 -32 -111 -165 -173 -176 -74 -13
-117 -49 -133 -108 -5 -23 -24 -74 -40 -114 -51 -125 -90 -387 -74 -501 l7
-51 51 0 c102 1 163 49 233 185 44 82 84 137 124 165 l29 21 22 -26 c13 -14
30 -25 40 -25 26 0 128 57 170 95 21 19 51 41 68 49 17 9 41 27 55 41 14 14
31 25 38 25 7 0 40 23 73 50 33 28 63 50 67 50 5 0 8 -10 8 -22 0 -24 -265
-292 -333 -335 -23 -15 -89 -70 -147 -123 -127 -116 -213 -186 -254 -207 -17
-9 -46 -29 -64 -45 -19 -16 -51 -40 -72 -53 -70 -44 -97 -133 -79 -263 17
-125 63 -343 103 -487 8 -27 17 -62 20 -76 3 -14 15 -38 27 -52 30 -39 74 -36
127 8 46 40 62 81 62 164 l0 54 53 -7 c144 -20 128 -23 167 31 27 37 43 49 70
53 19 4 47 14 62 24 29 19 68 89 68 122 0 38 21 92 38 99 11 4 24 -2 39 -19
15 -18 32 -26 53 -26 34 0 166 63 239 114 26 19 57 37 69 40 12 4 50 43 84 87
51 64 74 85 118 105 117 54 253 134 310 182 63 53 159 107 171 95 14 -14 -176
-194 -302 -287 -57 -42 -141 -109 -186 -149 -159 -141 -776 -772 -862 -882
-65 -82 -123 -177 -128 -210 -6 -38 13 -77 46 -95 16 -8 32 -3 83 27 35 20 79
48 98 63 19 15 56 41 81 56 46 29 84 57 215 162 37 28 70 52 75 52 5 0 41 29
79 65 39 35 109 91 156 123 47 32 160 119 250 193 154 125 499 359 530 359 26
0 14 -30 -33 -84 -27 -30 -56 -66 -66 -80 -10 -15 -36 -38 -58 -51 -21 -14
-39 -31 -39 -39 0 -7 -26 -35 -57 -62 -32 -27 -137 -126 -234 -220 -97 -94
-215 -203 -262 -242 -47 -39 -95 -86 -108 -104 -12 -18 -49 -60 -83 -93 -117
-115 -254 -276 -280 -327 -36 -71 -35 -135 1 -178 14 -17 37 -36 50 -41 50
-19 139 40 318 211 137 130 211 193 340 285 156 112 245 204 273 280 24 68 67
132 77 116 3 -6 4 -11 0 -11 -10 0 25 -72 50 -102 14 -16 22 -35 18 -41 -4 -7
-21 -33 -39 -58 -18 -25 -42 -66 -54 -90 -26 -49 -207 -239 -381 -398 -109
-99 -122 -108 -203 -136 -47 -16 -86 -34 -86 -40 0 -16 68 -78 120 -111 60
-37 148 -71 245 -94 179 -44 273 -12 299 102 8 33 30 82 52 115 47 69 511 538
572 578 40 27 44 27 60 11 11 -11 17 -32 16 -59 -2 -96 -38 -151 -239 -363
-69 -73 -130 -144 -137 -159 -19 -41 7 -55 104 -55 53 0 78 -4 78 -12 0 -13
-67 -80 -121 -120 -49 -38 -125 -56 -277 -67 -85 -6 -144 -15 -165 -26 -77
-39 -377 -44 -470 -9 -23 9 -73 21 -112 26 -117 16 -247 49 -305 78 -91 46
-218 145 -336 264 -113 114 -160 175 -254 331 -60 101 -91 146 -131 190 -15
17 -30 40 -33 52 -9 29 -81 93 -106 93 -32 0 -25 -33 36 -180 31 -74 61 -153
66 -175 20 -79 48 -147 82 -198 19 -29 119 -142 221 -252 294 -315 335 -365
335 -408 0 -40 -17 -41 -85 -6 -80 41 -243 185 -355 314 -100 114 -114 133
-144 200 -13 28 -40 75 -60 105 -48 72 -164 301 -210 415 -20 50 -42 101 -50
115 -7 14 -23 57 -36 95 -12 39 -42 116 -66 172 -24 56 -44 107 -44 112 0 19
-72 91 -91 91 -49 0 -34 -119 43 -335 6 -16 23 -70 38 -120 15 -49 46 -128 69
-174 22 -47 41 -91 41 -98 0 -7 4 -21 9 -31 5 -9 22 -44 37 -77 57 -120 158
-303 230 -413 41 -62 81 -126 88 -141 20 -38 167 -184 241 -239 76 -56 143
-86 259 -114 84 -21 112 -23 381 -22 311 1 539 23 670 64 33 10 98 28 145 41
47 12 90 25 95 29 6 4 28 13 50 20 49 16 157 69 222 110 57 36 133 107 133
125 0 17 26 26 54 19 36 -9 63 -55 91 -151 14 -48 29 -97 34 -108 6 -11 17
-42 25 -70 54 -178 120 -359 179 -485 19 -41 44 -106 56 -145 13 -38 28 -79
35 -90 7 -11 21 -45 31 -75 10 -30 35 -89 55 -130 21 -41 50 -106 65 -145 36
-92 244 -502 295 -583 43 -67 72 -79 78 -32 9 62 49 65 118 9 88 -72 229 -157
416 -250 183 -91 228 -120 228 -147 0 -8 -14 -37 -31 -65 -17 -28 -37 -69 -44
-91 -7 -23 -27 -74 -44 -113 -16 -40 -44 -139 -62 -220 -17 -82 -38 -160 -45
-175 -8 -15 -14 -34 -14 -43 0 -20 -21 -66 -60 -130 -51 -84 -59 -108 -69
-211 -16 -155 -39 -302 -60 -379 -11 -38 -24 -106 -30 -150 -13 -96 -52 -292
-79 -395 -11 -41 -25 -115 -32 -164 -6 -49 -16 -98 -21 -109 -6 -10 -24 -89
-40 -175 -16 -86 -42 -202 -58 -257 -17 -55 -37 -152 -46 -214 -9 -63 -18
-118 -21 -123 -3 -4 -9 -66 -14 -137 -6 -89 -14 -138 -25 -155 -24 -37 -38
-235 -30 -436 3 -96 10 -193 15 -215 11 -55 76 -221 104 -270 46 -77 174 -203
275 -269 140 -93 169 -144 190 -341 32 -286 108 -553 203 -707 32 -52 76 -82
105 -71 56 20 67 68 34 147 -11 25 -23 62 -27 83 -4 21 -10 43 -14 48 -16 23
-50 138 -75 250 -14 66 -32 140 -40 165 -21 65 -44 220 -38 253 4 21 11 27 30
27 42 0 326 -98 376 -130 75 -47 82 -64 83 -215 1 -111 5 -139 23 -180 25 -56
26 -76 7 -113 -7 -15 -18 -48 -24 -73 -16 -66 -64 -137 -168 -249 -109 -118
-140 -168 -152 -246 -9 -63 -5 -152 8 -169 5 -5 16 -37 25 -70 53 -185 183
-396 413 -672 48 -57 92 -117 99 -132 16 -37 15 -37 -201 -277 -40 -45 -121
-144 -181 -220 -115 -148 -193 -239 -337 -396 -97 -105 -148 -167 -148 -178 0
-4 -29 -37 -64 -73 -67 -68 -115 -100 -133 -89 -5 4 -13 69 -17 147 -3 77 -13
169 -21 205 -7 36 -25 121 -39 188 -35 167 -61 267 -102 390 -19 57 -39 136
-46 175 -7 45 -26 101 -49 147 -21 41 -56 125 -79 185 -57 152 -100 240 -151
318 -24 36 -69 110 -99 163 -48 85 -78 121 -227 274 -213 217 -254 249 -533
414 -198 117 -315 173 -390 186 -36 7 -85 21 -109 31 -71 32 -166 38 -581 39
-413 0 -550 -8 -616 -36 -21 -9 -66 -23 -99 -31 -33 -8 -108 -41 -169 -75
-234 -130 -335 -171 -451 -182 -127 -12 -226 -51 -367 -142 -38 -24 -85 -52
-105 -63 -44 -23 -158 -136 -211 -209 -20 -28 -58 -79 -83 -114 -25 -35 -60
-88 -76 -118 -16 -30 -44 -78 -61 -106 -43 -69 -91 -228 -102 -341 -5 -50 -18
-111 -27 -135 -17 -40 -18 -97 -18 -743 0 -538 3 -709 13 -740 7 -22 26 -184
42 -359 29 -306 51 -459 72 -500 6 -10 25 -76 44 -145 30 -113 63 -205 127
-356 35 -81 137 -268 160 -293 12 -13 30 -22 42 -20 18 3 20 9 18 69 -1 42
-11 90 -28 135 -74 193 -118 375 -97 396 20 20 82 -112 82 -175 0 -20 10 -47
25 -67 14 -19 25 -42 25 -52 0 -25 103 -240 183 -381 82 -143 221 -351 317
-471 38 -48 70 -92 70 -97 0 -4 25 -37 56 -71 62 -69 109 -152 100 -175 -5
-11 -15 -13 -44 -8 -31 5 -41 2 -56 -14 -34 -38 -23 -75 60 -198 60 -89 105
-141 201 -231 68 -64 142 -129 164 -144 23 -15 61 -44 85 -64 24 -19 70 -46
102 -59 45 -18 57 -28 57 -45 0 -26 -6 -30 -98 -66 -124 -47 -432 -53 -517 -9
-22 11 -71 20 -135 25 -86 6 -125 16 -280 70 -99 34 -202 69 -230 77 -116 35
-347 159 -447 240 -81 66 -339 330 -375 384 -17 25 -26 57 -30 96 -4 53 -2 61
27 100 38 51 136 127 205 159 28 13 82 30 120 38 39 8 84 22 101 31 19 9 73
18 129 22 98 6 145 25 145 58 0 32 -224 136 -336 156 -121 21 -205 -4 -329
-100 -107 -82 -204 -182 -252 -260 l-48 -76 -3 -182 c-3 -131 0 -188 9 -205
24 -45 153 -220 207 -280 30 -34 70 -86 89 -115 21 -34 41 -53 53 -53 11 0 42
-20 70 -45 131 -116 428 -283 701 -394 150 -60 249 -87 360 -96 46 -4 100 -14
119 -22 48 -20 104 -29 299 -53 203 -24 229 -33 344 -108 l38 -25 295 13 c415
17 527 7 765 -71 104 -33 189 -54 275 -66 117 -16 127 -16 171 0 27 9 63 17
82 17 19 0 56 13 85 29 68 38 179 65 421 101 110 17 216 36 235 42 173 56 524
307 566 404 7 17 21 37 30 45 24 20 93 129 144 229 73 144 182 285 244 317 31
16 127 94 261 213 39 34 91 76 116 94 25 17 97 80 160 140 63 60 127 117 142
126 39 24 346 327 436 430 41 47 134 148 207 225 72 77 159 176 193 220 33 44
106 130 162 190 56 61 113 128 127 150 23 38 152 205 179 233 24 24 86 136
218 392 73 140 183 343 245 450 62 107 126 220 143 250 76 137 187 259 274
301 59 28 192 32 221 6 28 -26 58 -20 101 18 51 46 131 202 131 255 0 35 -4
43 -40 65 -36 23 -40 29 -40 68 0 23 9 68 20 100 11 31 25 89 30 128 6 40 14
77 19 83 5 6 13 29 17 51 12 70 34 119 66 152 18 18 36 33 42 33 5 0 24 -18
43 -40 46 -53 78 -53 161 0 86 56 109 64 138 45 36 -23 94 -87 94 -102 0 -8
-31 -50 -69 -93 -87 -99 -107 -134 -92 -166 16 -35 54 -30 120 16 52 37 59 39
93 30 50 -14 127 -57 165 -93 24 -22 35 -45 44 -86 14 -66 5 -202 -16 -240 -7
-14 -25 -62 -38 -106 -44 -138 -74 -218 -111 -293 -20 -40 -36 -77 -36 -84 0
-19 -53 -131 -103 -216 -76 -130 -147 -171 -510 -297 -77 -27 -186 -100 -290
-193 -40 -35 -82 -68 -94 -73 -12 -4 -40 -33 -62 -63 -23 -30 -76 -82 -118
-116 -43 -33 -109 -87 -146 -120 -38 -32 -115 -86 -172 -119 -226 -132 -461
-369 -621 -625 -36 -58 -69 -108 -75 -111 -5 -4 -22 3 -38 14 -38 27 -42 27
-76 -9 l-29 -30 12 -88 c7 -48 17 -136 22 -197 14 -147 19 -172 45 -225 15
-29 23 -64 23 -96 1 -28 10 -78 22 -110 12 -33 26 -77 32 -99 6 -22 19 -58 29
-81 11 -22 19 -45 19 -50 0 -5 20 -52 44 -104 82 -178 116 -287 125 -398 6
-84 13 -112 39 -164 44 -87 174 -233 253 -285 35 -23 77 -55 93 -72 17 -17 35
-31 40 -31 6 0 54 -27 106 -60 52 -33 129 -77 170 -96 238 -114 288 -138 320
-150 19 -7 60 -22 90 -33 68 -26 241 -77 295 -87 22 -3 60 -15 85 -24 25 -10
79 -21 120 -25 41 -4 80 -11 86 -16 6 -5 77 -18 157 -29 81 -12 174 -30 208
-40 34 -11 83 -20 108 -20 26 0 74 -8 106 -17 49 -14 100 -18 270 -17 224 0
290 9 378 50 82 37 120 39 215 9 71 -22 97 -26 175 -23 51 3 128 14 172 26 67
18 129 23 390 32 171 6 337 16 370 21 33 6 125 15 205 20 153 10 319 42 450
87 146 50 449 208 510 267 14 14 30 25 34 25 11 0 74 50 160 125 102 90 203
216 279 350 37 66 103 170 147 230 83 113 133 187 166 242 10 17 35 51 56 75
20 24 75 117 123 208 47 90 93 172 101 182 26 28 37 174 31 400 -5 171 -9 215
-25 255 -40 101 -62 160 -83 223 -28 87 -102 191 -231 325 -86 90 -126 122
-210 173 -57 34 -108 62 -112 62 -4 0 -24 13 -44 29 -46 37 -351 190 -395 198
-17 3 -39 12 -48 20 -9 8 -49 16 -90 20 -41 3 -84 12 -96 19 -12 8 -77 23
-145 34 -68 10 -151 31 -184 44 -69 28 -213 50 -434 65 -89 6 -160 16 -183 26
-31 13 -110 17 -425 25 -434 11 -617 23 -666 44 -19 8 -53 31 -76 52 l-43 39
6 85 c6 100 46 273 86 380 16 42 36 104 45 139 9 34 29 93 45 129 16 37 41
105 57 152 15 47 42 118 61 159 18 40 33 78 33 83 0 5 38 89 85 186 47 98 85
181 85 186 0 5 16 43 35 86 27 60 36 96 41 156 8 120 9 122 52 130 67 12 129
52 212 136 125 126 144 161 165 293 6 33 19 51 83 109 100 92 172 167 172 181
0 6 21 44 47 85 25 41 52 93 58 115 7 22 32 81 55 130 49 104 138 341 151 400
4 22 12 80 18 128 12 105 47 189 108 261 24 27 43 56 43 63 0 7 13 27 28 45
63 74 217 378 237 468 4 18 17 47 29 65 12 18 30 68 40 111 10 44 31 126 48
184 34 118 57 260 65 399 5 97 -11 352 -27 425 -65 291 -169 617 -211 663 -31
32 -76 31 -89 -3 -16 -42 -12 -131 9 -172 10 -20 29 -93 41 -162 12 -69 24
-128 26 -132 3 -5 12 -47 20 -96 8 -48 20 -116 26 -152 16 -94 -5 -415 -38
-595 -30 -159 -69 -319 -108 -450 -15 -49 -32 -115 -37 -145 -11 -60 -74 -197
-113 -245 -23 -28 -26 -29 -42 -13 -38 38 -23 392 20 476 75 145 99 986 41
1427 -20 151 -19 176 11 248 26 61 27 64 16 169 -13 125 -38 188 -76 188 -12
0 -31 -9 -41 -20 -38 -42 -84 -15 -85 50 0 19 -11 58 -25 85 -13 28 -25 66
-25 86 0 20 -8 56 -19 80 -10 24 -22 78 -25 119 -9 99 -35 141 -144 230 -48
39 -215 194 -371 343 -500 479 -609 570 -966 800 -183 118 -265 185 -265 216
0 19 75 51 210 90 52 15 113 37 135 48 22 11 63 28 90 38 249 88 658 290 778
383 23 18 63 46 88 61 88 55 237 266 278 396 11 33 30 80 44 104 27 47 26 71
-3 71 -18 0 -34 -21 -157 -201 -58 -85 -133 -137 -133 -93 0 9 32 68 71 131
78 125 226 291 289 323 20 10 43 26 51 36 17 21 127 74 153 74 25 0 177 89
249 145 32 25 62 57 67 69 5 13 22 39 39 58 37 43 90 136 135 237 18 42 45
101 60 131 42 89 65 166 77 258 6 48 21 110 32 137 18 42 21 70 21 175 0 109
-4 135 -28 205 -50 145 -106 208 -247 275 l-64 30 -235 0 c-315 0 -340 -8
-494 -164 -37 -38 -110 -121 -161 -185 -136 -171 -149 -179 -210 -131 -21 16
-42 30 -48 30 -5 0 -27 15 -48 34 -45 42 -138 71 -253 81 -44 3 -95 13 -115
21 -25 10 -90 17 -206 21 l-170 6 -27 29 c-29 32 -68 135 -68 183 0 18 7 45
15 61 8 17 20 91 26 169 17 193 18 724 1 845 -18 132 -51 290 -67 314 -7 12
-16 40 -19 64 -9 58 -72 249 -97 290 -10 18 -19 39 -19 45 0 21 -105 240 -150
312 -24 39 -51 86 -61 106 -10 20 -46 73 -81 119 -35 46 -70 97 -79 114 -43
81 -385 423 -464 463 -16 9 -76 49 -131 89 -56 41 -105 74 -108 74 -4 0 -33
18 -65 39 -78 53 -281 154 -361 180 -125 40 -173 59 -181 72 -17 27 -10 105
11 132 32 41 76 50 156 34 38 -8 74 -12 81 -10 21 8 15 46 -14 88 -36 53 -45
151 -17 192 17 26 30 56 79 198 10 28 24 64 31 80 18 38 59 190 73 272 7 34
21 82 32 107 29 66 42 278 37 606 -4 274 -4 275 -31 332 -15 31 -27 74 -27 95
0 21 -9 58 -20 82 -11 24 -20 49 -20 55 0 7 -11 35 -25 62 -14 27 -35 74 -45
104 -11 30 -35 77 -54 105 -18 28 -43 69 -54 91 -52 101 -139 209 -280 345
-81 78 -170 156 -197 174 -28 18 -96 71 -152 118 -56 47 -124 98 -150 112 -26
15 -67 40 -91 56 -38 26 -51 29 -120 28 -49 0 -89 -6 -109 -16z m-412 -468
c23 -9 38 -46 28 -71 -13 -35 -55 -61 -128 -78 -100 -22 -216 -84 -333 -178
-27 -21 -28 -21 -60 -4 -50 27 -77 18 -93 -28 -20 -58 -108 -143 -167 -160
-91 -26 -359 -207 -616 -416 -52 -41 -120 -95 -152 -120 -32 -25 -82 -66 -112
-92 -94 -84 -311 -240 -393 -284 -90 -48 -171 -74 -227 -74 l-38 0 0 113 c0
111 1 114 34 170 70 116 134 177 186 177 28 0 25 -13 -16 -80 -44 -72 -43
-104 4 -108 67 -7 213 79 367 215 148 130 222 188 278 218 28 16 78 47 109 69
31 23 78 55 105 71 26 17 122 84 213 150 91 65 188 133 216 149 29 17 76 49
105 71 30 23 101 70 159 105 58 35 132 81 165 102 33 21 78 43 100 49 22 6 51
16 65 22 14 6 34 15 45 19 22 8 130 3 156 -7z m315 -207 c13 -20 -77 -91 -218
-171 -74 -42 -145 -87 -160 -100 -14 -13 -43 -33 -64 -43 -77 -40 -210 -127
-252 -165 -23 -22 -52 -43 -65 -48 -12 -5 -60 -37 -106 -72 -47 -35 -99 -73
-117 -84 -39 -24 -193 -154 -286 -244 -73 -69 -81 -91 -47 -127 35 -37 19 -64
-83 -147 -51 -41 -109 -92 -128 -112 -19 -20 -52 -45 -73 -56 -36 -19 -290
-211 -412 -312 -33 -28 -122 -112 -198 -188 -107 -108 -143 -150 -162 -194
-30 -68 -31 -88 -4 -126 34 -48 54 -54 118 -34 31 10 79 29 107 42 35 16 60
22 78 17 28 -7 36 -37 12 -51 -23 -14 -58 -93 -52 -119 4 -13 23 -42 45 -64
30 -32 45 -40 73 -40 63 0 243 74 367 151 36 23 118 69 181 103 126 69 187
104 318 185 48 29 137 81 197 116 236 134 271 155 290 173 36 36 367 215 427
233 15 4 30 4 33 -1 7 -11 -102 -116 -148 -144 -18 -11 -70 -52 -117 -91 -93
-77 -311 -247 -363 -282 -17 -12 -54 -40 -82 -63 -27 -23 -73 -58 -101 -78
-28 -20 -121 -100 -206 -177 -84 -78 -178 -157 -209 -178 -53 -35 -166 -147
-201 -199 -19 -28 -145 -98 -177 -98 -72 0 -408 232 -502 347 -109 133 -181
252 -214 353 -10 30 -26 72 -37 93 -18 36 -18 40 -3 63 8 13 31 31 51 39 19 8
72 42 117 75 45 33 92 67 105 76 33 23 25 55 -18 69 -32 11 -36 16 -31 45 0 5
27 27 59 49 32 21 64 47 72 56 19 23 195 159 266 206 31 20 72 52 92 71 33 32
312 250 592 465 148 113 498 366 605 437 50 33 113 79 141 101 28 23 91 63
140 90 49 26 102 59 118 72 77 64 213 112 232 81z m455 -282 c7 -14 9 -36 5
-49 -5 -22 -12 -25 -68 -29 -50 -4 -64 -9 -77 -28 -37 -54 -71 -78 -136 -94
-90 -23 -154 -53 -270 -130 -143 -95 -168 -89 -90 20 60 83 167 165 341 260
97 52 160 72 227 73 51 1 59 -2 68 -23z m257 -374 c41 -53 -64 -164 -183 -193
-54 -13 -229 -91 -254 -113 -9 -7 -56 -35 -106 -61 -49 -26 -108 -60 -130 -76
-22 -16 -63 -39 -91 -52 -28 -14 -100 -53 -160 -87 -136 -79 -425 -221 -436
-214 -19 12 20 48 135 122 67 44 142 98 167 120 25 22 70 54 100 72 30 18 93
60 140 94 47 35 155 108 240 164 85 55 169 112 185 125 46 37 162 96 219 112
63 18 155 11 174 -13z m161 -478 c24 -53 32 -170 22 -303 -11 -132 -20 -173
-49 -204 -9 -10 -132 -77 -274 -147 -142 -71 -293 -149 -335 -173 -43 -24
-125 -67 -183 -97 -193 -97 -374 -193 -460 -243 -47 -27 -103 -59 -124 -69
-22 -11 -64 -37 -95 -58 -31 -21 -69 -44 -86 -51 -16 -7 -54 -28 -83 -46 -115
-72 -356 -183 -398 -183 -11 0 -12 4 -5 18 21 39 126 144 199 198 42 32 124
99 182 149 127 110 184 156 238 193 22 15 70 54 107 87 37 33 93 77 124 98 31
21 70 51 87 67 17 15 51 40 75 56 24 15 71 51 104 79 33 29 125 99 205 156 80
56 222 160 315 229 245 181 379 269 411 270 6 0 16 -12 23 -26z m-1263 -2039
c9 -35 -11 -62 -137 -185 -82 -81 -110 -115 -119 -147 -23 -77 -79 -125 -354
-306 -150 -99 -420 -227 -478 -227 -32 0 -20 39 30 92 47 51 359 305 507 413
44 33 148 113 230 180 142 115 275 205 302 205 7 0 15 -11 19 -25z m1502 -61
c64 -32 142 -78 173 -101 74 -56 329 -319 365 -378 16 -25 43 -67 60 -93 48
-72 128 -231 159 -313 15 -41 35 -90 45 -109 37 -71 80 -252 120 -500 12 -74
31 -165 41 -202 11 -37 22 -112 25 -165 3 -54 12 -118 20 -142 8 -25 15 -89
15 -145 2 -123 9 -160 32 -164 29 -6 76 36 86 76 5 20 17 64 26 97 12 43 18
120 22 265 5 180 3 210 -11 238 -9 18 -22 70 -28 115 -19 153 -49 301 -68 340
-25 52 -37 123 -45 272 -9 176 11 213 77 136 35 -41 43 -57 103 -186 20 -44
63 -134 95 -200 32 -66 65 -141 74 -166 8 -26 33 -93 56 -149 60 -152 57 -168
-43 -237 -59 -41 -71 -65 -96 -203 -12 -63 -28 -144 -37 -180 -8 -37 -23 -217
-34 -415 -37 -650 -36 -642 -67 -704 -15 -31 -35 -56 -43 -56 -13 0 -15 53
-15 420 0 413 0 420 -20 420 -30 0 -41 -49 -55 -225 -7 -85 -18 -173 -25 -195
-7 -22 -16 -78 -19 -124 -7 -89 -21 -130 -38 -113 -6 6 -13 189 -19 489 -5
292 -13 494 -20 518 -6 22 -19 77 -30 123 -34 148 -132 315 -226 385 -40 29
-119 57 -164 57 -40 0 -120 -29 -146 -52 -69 -64 -233 -404 -255 -528 -5 -31
-8 -224 -6 -440 3 -371 4 -387 24 -425 12 -22 38 -107 59 -190 20 -82 48 -180
60 -217 33 -93 24 -103 -93 -111 -49 -4 -119 -13 -155 -22 -98 -23 -321 -43
-607 -55 -238 -10 -511 -33 -546 -47 -29 -11 -9 -35 46 -55 71 -27 281 -39
480 -27 413 25 532 29 964 30 311 0 472 -3 479 -10 7 -7 1 -12 -19 -16 -16 -3
-47 -11 -69 -17 -22 -6 -85 -21 -140 -35 -55 -13 -120 -31 -145 -39 -25 -9
-87 -22 -139 -30 -97 -15 -154 -38 -159 -66 -4 -22 26 -28 145 -28 77 0 114 5
150 19 34 13 98 22 213 31 273 19 365 46 502 148 65 48 69 50 156 56 100 8
191 42 300 113 73 48 180 77 368 97 66 7 145 21 176 31 55 18 58 18 115 -2 32
-12 83 -24 115 -27 67 -7 153 -39 193 -70 24 -19 28 -30 27 -64 -1 -23 -11
-67 -22 -99 -33 -99 -41 -142 -55 -325 -12 -163 -16 -182 -45 -242 -36 -76
-66 -100 -265 -209 -205 -111 -360 -180 -551 -242 -56 -18 -115 -40 -132 -49
-35 -18 -147 -22 -157 -6 -4 6 9 28 28 49 82 91 202 294 241 408 13 37 29 82
36 99 15 35 7 82 -16 91 -9 3 -29 -7 -50 -28 -38 -37 -134 -175 -155 -224 -7
-16 -30 -52 -51 -79 -21 -27 -38 -53 -38 -59 0 -15 -88 -136 -139 -190 -59
-64 -82 -75 -198 -93 -144 -23 -664 -30 -921 -14 -180 12 -205 12 -218 -2 -14
-13 -14 -19 -1 -50 16 -38 64 -78 94 -78 10 0 35 -9 56 -20 20 -11 56 -20 79
-20 24 0 70 -7 104 -15 37 -8 145 -16 280 -20 120 -3 247 -8 281 -11 110 -10
124 -49 28 -84 -27 -10 -81 -30 -119 -44 -67 -26 -96 -30 -384 -56 -62 -5
-117 -12 -123 -15 -30 -19 15 -37 126 -50 33 -4 67 -11 76 -16 9 -4 45 -15 80
-23 35 -8 91 -22 124 -32 51 -14 72 -15 140 -6 44 6 113 25 154 42 42 17 116
37 170 45 109 16 400 110 503 161 37 19 96 45 131 58 72 27 421 201 542 271
43 25 102 64 129 87 74 63 202 136 278 159 113 35 138 7 68 -77 -22 -27 -40
-56 -40 -65 0 -8 14 -22 32 -30 17 -8 38 -24 45 -36 13 -19 11 -24 -16 -56
-17 -19 -31 -42 -31 -51 0 -9 -17 -35 -38 -59 -21 -23 -58 -67 -84 -97 -94
-113 -351 -356 -436 -413 -139 -94 -361 -212 -462 -246 -36 -12 -105 -37 -155
-56 -49 -18 -112 -36 -140 -40 -27 -3 -60 -13 -72 -21 -12 -8 -33 -14 -45 -14
-13 0 -55 -7 -93 -15 -85 -18 -461 -20 -766 -5 -264 14 -494 60 -714 144 -33
13 -97 37 -142 54 -226 87 -589 274 -683 352 -25 20 -61 45 -80 55 -167 85
-558 507 -690 745 -29 52 -65 111 -79 130 -15 19 -33 55 -40 80 -7 25 -26 74
-43 110 -41 87 -58 138 -58 167 l0 24 939 -3 c878 -3 940 -4 958 -20 50 -45
77 -3 53 83 -7 26 -21 41 -51 58 -55 31 -159 38 -724 46 -469 6 -983 21 -1128
31 -74 6 -94 11 -118 31 -16 14 -29 35 -29 46 0 12 -14 49 -30 82 -17 33 -30
73 -30 89 l0 29 83 -7 c150 -13 142 -14 145 16 7 62 -90 180 -185 225 -53 25
-68 28 -183 28 -118 0 -128 -2 -180 -29 -222 -115 -428 -428 -341 -515 27 -27
84 -36 122 -21 34 14 53 46 63 105 11 58 39 106 89 152 76 70 146 94 162 56
30 -75 56 -166 66 -236 6 -45 21 -104 34 -132 13 -27 28 -79 35 -115 6 -36 25
-103 42 -150 17 -47 51 -141 75 -210 25 -69 53 -150 64 -180 59 -163 96 -300
111 -415 17 -124 36 -229 52 -285 9 -30 23 -125 31 -210 23 -228 54 -402 75
-415 5 -3 12 -31 15 -63 4 -31 16 -73 26 -92 10 -19 23 -53 28 -75 30 -119
213 -337 373 -447 87 -58 233 -128 302 -143 33 -7 77 -18 96 -24 50 -16 234
-14 273 3 18 7 54 16 79 20 26 4 50 12 54 17 3 5 38 26 77 45 114 58 202 120
305 218 266 250 437 350 496 290 9 -8 16 -18 16 -21 0 -22 -54 -83 -119 -133
-42 -33 -98 -78 -126 -100 -61 -50 -299 -210 -311 -210 -5 0 -31 -16 -58 -35
-27 -19 -55 -35 -62 -35 -7 0 -50 -20 -96 -44 -50 -27 -109 -49 -148 -56 -35
-6 -76 -18 -92 -26 -54 -28 -513 -12 -628 22 -79 23 -302 136 -373 189 -102
76 -220 189 -267 256 -24 35 -59 87 -78 114 -36 52 -132 245 -132 265 0 6 -19
55 -41 108 -28 64 -48 134 -61 207 -11 60 -27 126 -37 145 -10 19 -21 61 -25
93 -3 32 -12 73 -20 90 -19 46 -65 97 -86 97 -24 0 -52 -36 -75 -96 -17 -45
-17 -50 -2 -77 24 -41 25 -278 1 -301 -32 -33 -81 -14 -185 70 -124 101 -464
467 -593 639 -87 115 -243 353 -275 419 -48 99 -132 323 -141 379 -5 29 -18
86 -29 129 -35 135 -52 541 -31 740 16 153 98 338 227 510 89 118 163 194 284
290 133 107 245 174 324 196 22 6 78 26 125 46 137 56 322 67 585 35 91 -11
198 -43 215 -65 7 -8 19 -14 28 -14 19 0 273 -250 385 -378 90 -103 112 -112
151 -59 21 28 21 38 28 760 4 502 10 743 17 767 7 19 16 81 20 137 6 73 16
117 33 155 14 30 28 72 32 93 18 102 219 460 332 592 74 86 87 92 221 104 88
7 145 18 223 44 141 47 197 54 384 51 l158 -3 116 -59z m-4348 -155 c31 -43
70 -137 70 -169 0 -21 -65 -70 -295 -221 -88 -58 -320 -211 -515 -341 -195
-129 -377 -247 -405 -263 -27 -15 -71 -44 -97 -66 -47 -39 -88 -51 -88 -25 0
23 61 90 190 206 112 102 200 184 490 455 153 143 268 243 308 269 22 14 69
51 104 82 72 64 152 114 185 114 15 0 33 -14 53 -41z m1857 -1149 c162 -106
191 -279 47 -280 -42 0 -50 13 -59 90 -7 64 -37 132 -70 160 -14 11 -22 7 -63
-32 -26 -24 -59 -49 -74 -56 -15 -6 -39 -29 -54 -52 l-27 -40 -83 0 c-53 0
-85 4 -90 12 -17 28 157 157 290 215 76 33 111 30 183 -17z m824 -4203 c96
-85 179 -176 227 -250 35 -55 95 -179 152 -313 31 -73 105 -111 130 -65 5 11
10 54 10 96 0 148 33 153 159 28 94 -95 154 -178 189 -260 29 -68 28 -104 -3
-142 -39 -45 -80 -54 -224 -48 -169 7 -252 38 -381 143 -191 154 -308 350
-271 454 14 40 1 65 -36 73 -36 7 -71 67 -78 133 -3 27 -11 81 -17 121 -13 87
-8 103 30 103 22 0 50 -18 113 -73z m2826 -686 c10 -5 65 -33 123 -62 134 -66
143 -72 405 -258 222 -157 335 -252 360 -301 9 -17 12 -41 8 -62 -5 -33 -3
-37 33 -54 50 -24 56 -55 18 -95 -34 -36 -44 -36 -76 -1 -50 53 -62 83 -68
161 -5 72 -6 76 -39 98 -60 41 -99 46 -191 24 -46 -10 -103 -32 -131 -50 -116
-72 -335 -147 -444 -153 -49 -3 -50 -3 -50 27 0 27 11 37 114 106 247 167 302
267 180 330 l-41 20 -71 -21 c-63 -19 -141 -56 -172 -80 -5 -4 -46 -27 -90
-50 -188 -99 -277 -154 -328 -200 -30 -28 -59 -50 -64 -50 -4 0 -32 -16 -60
-35 -29 -19 -57 -35 -62 -35 -29 0 -47 99 -31 175 16 79 41 103 123 120 119
25 315 144 383 232 25 33 30 50 36 125 4 48 10 93 14 99 8 13 91 6 121 -10z
m-809 -759 c3 -17 -15 -42 -75 -101 -89 -89 -184 -154 -293 -201 -41 -18 -85
-37 -98 -43 -42 -20 -91 -71 -129 -132 -34 -55 -37 -66 -37 -136 -1 -119 28
-137 110 -69 57 48 161 100 198 100 15 0 30 -8 36 -19 8 -16 3 -28 -29 -69
-50 -62 -830 -848 -959 -965 -126 -114 -149 -129 -187 -121 -71 15 -215 105
-215 134 0 11 34 39 88 73 48 31 119 84 157 118 39 34 120 104 181 155 118 99
149 136 140 161 -5 12 -16 14 -51 9 l-45 -7 0 41 c0 50 20 60 121 60 38 0 84
6 102 14 87 36 240 273 241 373 l1 48 -53 3 c-61 4 -140 -28 -236 -93 -102
-69 -425 -345 -455 -388 -52 -76 -285 -288 -383 -350 -46 -29 -91 -22 -126 17
-37 43 -46 69 -33 95 15 27 14 51 -4 85 -21 40 -18 58 13 82 32 25 78 40 152
50 72 9 126 28 169 62 20 15 52 34 71 43 19 9 116 74 215 146 99 71 207 148
240 172 90 63 303 201 312 201 5 0 25 12 46 26 53 35 222 130 341 189 54 28
119 69 145 93 33 30 65 48 111 62 40 13 88 38 125 65 64 49 88 53 93 17z
m-1324 -118 c7 -18 -6 -42 -74 -133 -98 -133 -159 -203 -335 -386 -180 -188
-259 -277 -305 -345 -37 -56 -82 -100 -102 -100 -25 0 -70 65 -134 191 l-53
107 31 47 c28 42 79 85 101 85 12 0 7 -43 -8 -70 -8 -14 -14 -37 -15 -51 0
-32 35 -79 60 -79 37 0 152 102 477 423 183 180 337 327 342 327 5 0 12 -7 15
-16z m2989 -21 c15 -9 6 -21 -35 -48 -24 -15 -70 -52 -103 -83 -60 -55 -243
-162 -277 -162 -21 0 -33 39 -23 78 15 63 154 164 261 191 22 5 57 16 79 25
35 13 73 13 98 -1z m-733 -222 c0 -12 -68 -91 -165 -193 -91 -95 -168 -184
-172 -197 -8 -33 14 -43 56 -25 75 31 82 -11 14 -78 -27 -25 -62 -53 -78 -61
-17 -8 -39 -24 -49 -36 -11 -12 -25 -21 -32 -21 -20 0 -44 41 -44 77 0 28 -5
35 -37 50 -28 14 -39 25 -41 45 -3 24 14 45 110 141 109 109 226 207 246 207
6 0 41 25 77 55 71 58 115 71 115 36z m-3860 -95 c0 -13 -6 -29 -14 -35 -7 -6
-16 -35 -19 -65 -3 -29 -14 -71 -25 -92 -11 -22 -23 -59 -27 -84 -9 -60 -72
-185 -132 -263 -119 -155 -434 -487 -462 -487 -20 0 -12 41 18 83 16 23 57 73
90 110 34 37 61 72 61 76 0 5 53 65 118 133 138 145 262 322 262 374 0 18 -9
49 -21 68 -27 46 -19 79 31 133 72 76 120 96 120 49z m257 -28 c27 -30 57 -91
76 -156 9 -29 23 -65 31 -80 17 -30 60 -142 81 -212 7 -25 23 -63 34 -85 12
-21 21 -46 21 -55 0 -9 15 -54 34 -101 19 -47 44 -123 56 -170 12 -46 30 -93
41 -105 33 -35 24 -63 -50 -152 -38 -46 -75 -98 -81 -115 -28 -77 -29 -77 -60
-77 -40 0 -58 -37 -67 -137 -3 -43 -12 -87 -18 -98 -7 -11 -16 -42 -20 -70 -8
-62 -44 -165 -79 -230 -14 -28 -26 -58 -26 -68 0 -23 -63 -151 -96 -194 -52
-69 -117 -28 -148 93 -20 76 -20 195 -2 249 8 22 17 94 20 160 21 372 39 588
56 660 10 44 21 121 25 170 5 81 16 183 45 442 5 45 16 96 25 113 9 17 20 67
25 112 9 74 29 128 48 128 5 0 18 -10 29 -22z m5098 -79 c22 -6 54 -21 71 -34
58 -44 219 -310 263 -436 10 -30 33 -88 49 -129 17 -41 37 -114 46 -162 8 -48
20 -97 26 -108 48 -89 105 -894 70 -985 -5 -14 -17 -130 -25 -257 -13 -194
-19 -242 -40 -303 -14 -39 -25 -85 -25 -101 0 -112 -170 -599 -291 -836 -67
-131 -92 -171 -205 -343 -114 -171 -131 -190 -236 -258 -46 -30 -146 -111
-223 -182 -77 -70 -158 -141 -180 -157 -55 -41 -144 -85 -188 -93 -32 -6 -40
-3 -67 23 -28 29 -30 35 -28 100 1 53 -3 77 -16 97 l-18 27 -25 -24 c-14 -12
-43 -59 -65 -103 -46 -93 -82 -135 -115 -135 -24 0 -27 7 -38 91 -4 35 -12 49
-30 59 -57 31 -118 -37 -128 -142 -12 -127 -80 -206 -254 -295 -145 -75 -229
-109 -297 -122 -29 -5 -70 -16 -92 -25 -21 -8 -91 -24 -154 -36 -63 -11 -131
-25 -150 -30 -45 -13 -106 -13 -130 0 -10 6 -29 28 -41 50 -23 40 -50 55 -86
48 -20 -4 -97 -102 -147 -188 -18 -30 -53 -120 -80 -200 -47 -146 -81 -210
-123 -237 -22 -14 -26 -13 -66 13 -23 16 -125 112 -227 214 -135 135 -199 206
-233 261 -60 98 -62 134 -11 245 61 132 50 204 -31 204 -42 0 -93 -52 -137
-136 -37 -72 -67 -89 -123 -71 -35 12 -279 252 -290 286 -4 12 -4 33 -1 45 10
42 46 49 281 53 240 4 290 11 301 45 8 26 -5 37 -105 85 -88 43 -191 56 -232
30 -13 -8 -46 -17 -72 -21 -41 -5 -102 -27 -212 -76 -64 -29 -178 -40 -191
-18 -4 6 20 65 54 132 73 145 92 190 92 224 0 37 -27 62 -67 62 -45 0 -78 -34
-87 -89 -4 -24 -15 -56 -25 -70 -10 -14 -21 -36 -25 -47 -29 -94 -270 -103
-439 -17 -65 33 -151 114 -177 167 -23 49 -27 132 -6 161 7 11 17 35 21 54 11
51 51 136 99 210 77 118 126 231 126 291 0 41 -29 94 -61 111 -13 6 -48 17
-78 25 -125 29 -156 41 -168 65 -28 53 -10 396 27 520 26 86 49 105 117 95 25
-3 51 -10 57 -15 50 -39 390 -72 761 -74 264 -2 290 -1 293 15 7 37 -136 77
-376 104 -75 9 -189 27 -252 40 -63 14 -142 30 -175 36 -90 16 -219 56 -268
83 -68 38 -81 82 -47 150 11 22 20 49 20 60 0 11 6 29 14 40 7 11 16 33 20 50
7 29 79 202 158 379 50 113 165 337 183 355 8 8 21 11 31 7 13 -5 15 -15 11
-47 -4 -30 -17 -53 -51 -89 -25 -27 -46 -56 -46 -65 0 -8 15 -24 33 -36 43
-26 77 -19 143 31 28 23 66 45 84 50 43 12 127 -8 299 -72 253 -94 407 -140
511 -152 25 -3 68 -15 95 -28 l50 -23 540 0 540 0 55 24 c46 20 72 25 157 25
86 1 105 -2 120 -17 17 -17 18 -50 16 -520 -1 -570 -18 -1079 -38 -1182 -7
-38 -16 -126 -19 -194 -4 -68 -11 -132 -16 -142 -6 -10 -16 -80 -24 -156 -9
-89 -23 -165 -39 -213 -14 -41 -28 -93 -31 -115 -3 -22 -13 -65 -21 -95 -22
-74 -34 -433 -16 -445 36 -22 99 57 110 137 4 29 13 63 19 75 7 12 15 50 18
85 3 35 12 81 19 103 21 63 52 183 69 270 9 44 25 113 36 153 10 40 24 121 31
180 6 59 19 132 30 161 20 59 41 213 59 436 8 99 16 144 26 155 14 13 17 13
29 -4 8 -10 19 -40 24 -67 14 -64 60 -154 106 -204 20 -22 44 -56 55 -76 45
-85 159 -151 174 -101 7 22 -26 155 -54 219 -31 71 -27 90 32 145 l52 48 8
232 c10 277 38 494 70 547 31 52 31 142 -1 198 -22 39 -23 73 -2 73 23 0 138
-100 173 -150 39 -56 60 -116 97 -275 29 -122 34 -404 9 -486 -9 -30 -28 -99
-41 -154 -48 -194 -58 -214 -188 -370 -72 -88 -93 -120 -84 -135 11 -17 89
-32 135 -26 25 3 73 20 108 38 75 37 99 72 222 317 l81 163 -3 331 -3 332 -27
49 c-16 27 -28 55 -28 63 0 18 -98 216 -146 295 -39 63 -95 118 -123 118 -10
0 -30 9 -44 20 -34 27 -124 43 -222 38 -77 -3 -83 -5 -146 -50 -130 -93 -191
-193 -213 -351 -7 -54 -18 -103 -25 -110 -32 -32 -50 61 -50 276 -1 90 -5 138
-16 164 -15 36 -21 195 -9 227 9 24 115 96 269 181 233 129 506 296 604 370
52 38 91 29 91 -22 0 -13 6 -36 14 -51 8 -15 17 -50 21 -77 4 -28 16 -66 26
-86 9 -19 22 -64 29 -100 6 -35 19 -89 29 -119 25 -74 39 -166 51 -349 11
-155 23 -207 59 -246 29 -32 51 -81 62 -141 32 -175 206 -420 422 -595 55 -44
81 -48 135 -19 55 29 67 41 92 90 12 24 38 66 56 93 18 27 38 63 43 80 5 18
24 68 43 112 19 44 42 107 52 140 9 33 24 80 33 105 8 25 19 72 25 105 5 33
15 69 21 80 16 28 21 313 8 466 -11 134 -8 124 -121 334 -71 131 -221 259
-319 272 -114 15 -353 -183 -461 -382 -48 -89 -57 -96 -80 -65 -20 26 -53 125
-66 195 -4 22 -13 49 -20 60 -8 11 -14 29 -14 41 0 11 -11 42 -25 68 -53 99
-33 150 131 330 189 208 236 261 261 298 14 21 35 40 47 44 11 3 30 14 41 24
20 18 36 23 65 21 9 0 42 -26 75 -56 32 -30 62 -55 66 -55 5 0 13 9 19 21 17
30 3 110 -32 193 -74 175 -73 182 27 155z m-2176 -298 c76 -48 -254 -376 -702
-697 -134 -96 -215 -192 -232 -276 -9 -45 -30 -58 -95 -58 -169 0 -310 45
-310 100 0 24 47 64 117 99 42 21 86 55 130 102 38 38 93 84 123 101 95 54
153 94 234 165 43 37 95 79 116 93 21 14 64 47 96 73 74 60 211 154 289 197
33 19 76 46 95 61 54 41 111 58 139 40z m1111 -303 c0 -7 -83 -95 -186 -194
-193 -190 -269 -246 -459 -343 -91 -47 -123 -50 -160 -18 l-25 22 20 40 c46
90 265 304 355 346 22 10 59 19 83 19 38 0 45 4 60 32 36 67 54 78 134 79 40
0 91 6 113 14 53 17 65 18 65 3z m1060 -553 c36 -18 59 -40 84 -80 53 -82 84
-147 91 -191 4 -21 13 -56 21 -77 19 -50 19 -242 0 -288 -7 -19 -16 -71 -19
-116 -4 -46 -13 -95 -20 -110 -8 -16 -17 -49 -21 -75 -8 -51 -37 -141 -65
-197 -10 -20 -29 -67 -42 -104 -40 -117 -106 -146 -194 -85 -54 36 -78 99 -26
66 18 -11 23 -10 38 5 16 16 17 32 13 130 -3 62 -4 303 -4 537 2 356 5 436 18
495 19 77 39 115 62 115 8 0 37 -11 64 -25z m-7807 -2708 c50 -24 124 -63 162
-87 39 -23 96 -56 127 -72 68 -35 220 -160 339 -278 129 -128 351 -416 410
-532 12 -24 32 -55 45 -71 24 -28 23 -57 -2 -57 -21 0 -68 45 -270 261 -200
213 -297 302 -323 297 -22 -4 -26 -59 -7 -95 8 -16 51 -69 96 -117 88 -95 110
-133 110 -195 0 -56 7 -69 48 -82 52 -17 123 -70 179 -137 130 -151 288 -374
343 -482 37 -73 100 -251 110 -310 4 -30 20 -85 33 -122 14 -38 28 -96 32
-130 4 -35 16 -82 26 -105 10 -23 19 -48 19 -56 0 -8 11 -39 25 -69 14 -29 25
-62 25 -74 0 -11 11 -35 25 -54 49 -66 29 -110 -89 -189 -108 -73 -153 -94
-190 -87 -18 4 -73 27 -122 52 -73 37 -102 46 -159 50 -103 8 -113 11 -132 47
-15 27 -18 67 -21 272 -2 132 0 256 5 275 14 53 35 44 49 -20 6 -30 19 -74 28
-98 8 -24 19 -73 22 -109 11 -103 57 -132 116 -73 22 22 29 37 24 53 -48 187
-78 293 -95 342 -12 33 -29 88 -37 122 -8 35 -25 79 -39 98 -13 20 -31 59 -41
88 -9 28 -30 73 -45 99 -15 26 -33 66 -40 90 -6 24 -20 55 -30 69 -23 33 -26
109 -4 109 8 0 21 -13 29 -28 8 -15 39 -59 69 -97 100 -129 243 -407 336 -655
102 -270 134 -306 139 -155 5 182 -63 418 -170 586 -19 30 -45 76 -57 102 -13
27 -33 60 -45 75 -12 15 -34 47 -49 72 -14 25 -82 105 -151 178 -69 73 -143
159 -164 190 -48 70 -139 236 -222 402 -124 249 -175 325 -295 446 -60 60
-154 150 -207 198 -54 48 -98 92 -98 97 0 19 43 8 133 -34z m-890 23 c135 -8
183 -15 243 -35 41 -14 82 -25 92 -25 22 0 71 -26 211 -114 88 -55 141 -98
233 -190 65 -65 133 -139 150 -165 17 -25 51 -68 75 -95 24 -26 43 -53 43 -58
0 -6 20 -42 44 -82 25 -39 48 -84 52 -101 4 -16 17 -51 30 -77 13 -26 24 -55
24 -64 0 -10 11 -37 25 -61 39 -65 72 -161 80 -228 4 -33 13 -70 21 -82 21
-33 42 -129 64 -293 25 -182 35 -237 50 -275 7 -18 15 -139 21 -310 18 -581
30 -842 39 -890 5 -27 12 -133 16 -235 3 -106 11 -204 19 -230 7 -25 16 -79
19 -120 10 -112 48 -157 92 -107 15 18 25 45 29 84 3 32 16 85 28 118 31 86
30 285 -1 363 -39 94 -24 225 20 174 8 -9 32 -44 53 -76 65 -99 159 -142 216
-98 64 50 141 54 194 12 47 -37 235 -240 235 -254 0 -5 16 -32 35 -60 39 -58
125 -242 125 -269 0 -10 12 -44 26 -74 34 -76 51 -148 64 -272 13 -136 13
-235 -2 -284 -6 -21 -31 -60 -54 -85 -50 -57 -50 -57 -137 73 -149 223 -316
385 -397 385 -56 0 -80 -34 -80 -114 0 -72 23 -118 72 -144 73 -39 188 -169
188 -212 0 -10 9 -38 20 -63 14 -32 23 -82 29 -156 5 -67 13 -117 22 -129 73
-101 79 -112 89 -177 12 -76 0 -215 -26 -308 -8 -29 -19 -68 -24 -88 -28 -109
-108 -233 -179 -278 -65 -41 -176 -97 -241 -119 -30 -11 -76 -28 -102 -38 -47
-18 -48 -18 -84 1 -23 12 -43 33 -52 55 -24 58 -62 216 -87 367 -13 78 -36
177 -51 220 -36 105 -229 488 -324 643 -88 145 -167 289 -203 375 -14 33 -53
123 -86 199 -34 76 -61 143 -61 149 0 5 -17 46 -39 91 -21 44 -42 98 -45 118
-4 20 -20 70 -37 110 -64 153 -154 425 -170 513 -6 33 -14 65 -18 70 -13 16
-59 165 -75 240 -8 39 -26 102 -39 141 -14 39 -28 91 -32 115 -4 24 -19 87
-33 139 -24 92 -69 275 -111 450 -41 167 -61 246 -81 310 -11 36 -25 88 -30
115 -5 28 -25 98 -45 155 -21 58 -44 125 -52 150 -8 25 -32 82 -53 127 -22 46
-49 110 -60 143 -26 76 -82 171 -184 308 -101 137 -176 209 -322 307 -137 93
-221 166 -210 183 13 22 172 91 247 108 63 14 172 26 294 32 17 1 106 -3 198
-8z m-876 -424 c61 -16 106 -43 147 -85 17 -17 36 -31 43 -31 27 0 262 -260
298 -330 8 -16 26 -46 40 -66 40 -59 141 -264 164 -332 12 -35 26 -71 31 -80
15 -27 106 -319 125 -402 10 -41 25 -91 35 -110 10 -20 24 -74 30 -120 7 -47
21 -105 31 -129 11 -24 19 -55 19 -70 0 -14 9 -50 20 -78 11 -29 31 -108 45
-175 13 -68 34 -154 45 -193 12 -38 25 -86 30 -105 12 -44 13 -127 1 -134 -19
-12 -64 64 -75 127 -4 20 -20 70 -36 110 -17 39 -30 79 -30 87 0 8 -7 29 -16
45 -9 17 -23 59 -31 95 -7 36 -27 99 -43 140 -17 41 -56 167 -89 280 -107 371
-192 625 -222 665 -4 6 -12 28 -18 50 -12 46 -167 322 -243 435 -94 138 -206
264 -348 389 -40 34 -31 38 47 17z m4524 -71 c47 -13 119 -39 160 -56 41 -17
108 -43 148 -58 48 -18 82 -37 95 -54 19 -25 19 -29 3 -61 -8 -19 -51 -81 -94
-138 -43 -56 -110 -154 -148 -217 -113 -185 -127 -184 -238 11 -91 160 -207
400 -214 443 -7 44 45 99 122 130 33 14 65 25 70 25 6 0 49 -11 96 -25z
m-4788 -116 c174 -68 293 -165 400 -326 74 -111 214 -403 242 -503 4 -14 23
-61 42 -105 51 -117 162 -453 169 -511 3 -27 14 -69 24 -94 24 -56 79 -215
118 -340 17 -52 40 -117 51 -143 12 -27 21 -57 21 -67 0 -10 15 -51 34 -91 19
-41 53 -123 76 -184 24 -60 70 -166 102 -235 33 -69 72 -156 87 -195 15 -38
50 -106 78 -151 28 -44 83 -141 123 -215 40 -74 88 -157 106 -185 19 -28 34
-57 34 -65 0 -8 29 -64 65 -124 61 -102 75 -145 57 -171 -39 -57 -357 -197
-557 -244 -44 -11 -121 -30 -172 -44 -51 -13 -120 -27 -155 -31 -35 -3 -107
-13 -160 -21 -98 -15 -134 -12 -210 18 -25 9 -28 16 -28 53 0 25 -14 82 -33
132 -30 79 -53 147 -93 283 -15 51 -130 507 -162 645 -12 50 -26 122 -31 160
-6 39 -20 93 -30 121 -11 29 -27 116 -36 195 -10 79 -23 155 -30 169 -7 14
-15 63 -18 110 -4 47 -13 104 -21 126 -8 23 -20 99 -26 170 -6 71 -13 136 -15
144 -2 8 -14 85 -25 170 -11 85 -29 209 -40 275 -11 66 -24 157 -29 202 -5 45
-17 95 -26 113 -18 35 -36 121 -65 308 -11 68 -31 152 -45 187 -30 73 -47 202
-35 260 4 22 20 69 34 104 14 36 26 68 26 72 0 4 4 19 10 33 9 24 13 26 52 20
24 -4 64 -15 91 -25z m9272 -119 c4 -18 -1 -46 -13 -77 -11 -26 -30 -81 -43
-122 -30 -98 -79 -159 -185 -227 -47 -30 -102 -62 -122 -72 -20 -9 -62 -33
-92 -53 -30 -20 -100 -59 -155 -86 -55 -27 -110 -56 -123 -64 -55 -35 -76 50
-35 141 12 25 24 69 28 98 5 40 17 65 46 102 39 50 132 130 150 130 6 0 37 18
70 41 33 22 74 45 92 51 18 6 48 23 67 38 19 15 46 31 60 35 13 4 69 29 123
56 54 26 104 46 112 43 8 -3 17 -18 20 -34z m-9616 -257 c11 -22 27 -133 40
-279 6 -61 17 -129 25 -150 14 -36 37 -181 66 -419 6 -49 24 -142 40 -205 15
-63 35 -173 44 -245 30 -255 47 -365 66 -441 11 -43 20 -98 20 -123 0 -53 23
-193 39 -234 6 -16 11 -43 11 -61 0 -17 13 -86 29 -152 16 -65 32 -139 36
-163 4 -24 16 -62 26 -85 10 -23 19 -57 19 -76 0 -20 9 -62 20 -93 11 -32 23
-79 26 -105 4 -26 17 -72 29 -102 26 -62 46 -120 79 -230 12 -41 30 -89 39
-107 9 -18 17 -38 17 -46 0 -7 13 -41 30 -74 71 -148 83 -186 65 -210 -12 -17
-18 -15 -84 32 -40 28 -88 60 -107 71 -78 47 -296 292 -329 370 -8 19 -19 34
-24 34 -6 0 -18 15 -27 33 -9 17 -32 48 -50 68 -33 34 -80 109 -169 270 -23
42 -51 89 -62 105 -33 46 -171 323 -197 394 -38 103 -77 203 -89 225 -6 11
-14 49 -18 85 -4 36 -13 94 -19 130 -13 71 -6 672 10 810 22 200 68 418 100
478 11 20 20 45 20 54 0 53 116 304 192 416 31 46 69 57 87 25z m5940 -9 c17
-14 35 -42 41 -64 8 -31 18 -42 53 -58 23 -11 67 -23 97 -27 91 -12 111 -33
68 -72 -13 -11 -81 -55 -153 -98 -167 -100 -181 -108 -295 -168 l-95 -50 -3
29 c-3 24 3 34 35 59 64 49 237 228 257 266 26 50 16 86 -30 105 -22 9 -48 12
-70 8 -30 -5 -34 -4 -34 14 0 22 62 82 85 82 7 0 27 -12 44 -26z m119 -521
c-2 -20 -30 -49 -118 -120 -63 -52 -128 -101 -145 -110 -16 -9 -102 -67 -189
-130 -88 -63 -182 -126 -210 -140 -28 -14 -94 -59 -146 -99 -52 -40 -122 -87
-154 -104 -33 -17 -85 -49 -115 -69 -90 -60 -170 -103 -181 -96 -5 3 -10 13
-10 20 0 16 325 263 505 384 61 41 124 86 141 101 57 49 533 362 571 376 52
18 55 18 51 -13z m3231 -397 c20 -23 -1 -48 -75 -91 -96 -56 -162 -107 -289
-220 -202 -181 -415 -325 -479 -325 -32 0 -33 9 -4 46 141 185 283 306 394
339 51 15 66 26 204 153 96 89 217 137 249 98z m-3079 -183 c91 -34 304 -173
356 -232 32 -36 31 -100 -1 -180 -31 -75 -21 -57 -140 -266 -119 -210 -166
-286 -230 -371 -27 -37 -59 -81 -70 -99 -11 -17 -38 -54 -61 -81 -22 -27 -50
-65 -62 -84 -11 -20 -33 -47 -47 -60 -15 -14 -34 -38 -42 -55 -19 -36 -69 -98
-178 -220 -45 -49 -100 -116 -123 -147 -60 -82 -198 -235 -417 -465 -104 -109
-233 -248 -285 -307 -116 -133 -554 -562 -594 -583 -17 -9 -37 -25 -46 -36
-38 -46 -66 8 -35 66 8 16 21 50 29 76 7 26 35 80 61 120 26 41 54 92 61 115
6 23 23 66 37 96 31 69 34 84 51 250 17 161 27 193 59 188 13 -2 21 -9 18 -18
-17 -68 -13 -100 19 -154 17 -31 35 -56 39 -56 11 0 57 68 70 103 6 16 11 52
11 80 0 29 5 81 11 116 20 124 163 360 359 595 63 75 127 156 142 179 15 23
57 80 93 127 108 141 195 264 195 276 0 6 9 19 20 29 10 9 47 65 81 124 34 58
88 144 119 191 32 47 79 126 105 175 27 50 65 116 87 148 21 31 55 83 77 115
21 31 57 93 81 137 45 83 76 125 94 125 6 0 31 -8 56 -17z m2941 -203 c10 -6
19 -19 19 -28 0 -29 -109 -131 -175 -164 -96 -49 -255 -158 -312 -215 -29 -28
-62 -55 -74 -58 -11 -4 -35 -19 -52 -34 -41 -36 -150 -111 -205 -141 -53 -30
-72 -19 -52 30 16 38 356 318 479 395 47 30 142 92 210 139 69 47 129 86 134
86 4 0 17 -5 28 -10z m-3691 -122 c0 -17 -118 -128 -136 -128 -8 0 -33 -17
-57 -38 -23 -21 -64 -55 -92 -77 -155 -121 -457 -413 -480 -465 -10 -22 -25
-42 -34 -44 -145 -40 -197 -61 -253 -101 -137 -96 -198 -135 -212 -135 -19 0
-31 41 -22 75 8 30 219 250 278 291 24 16 63 46 87 67 53 45 135 93 176 103
33 7 97 53 226 159 89 74 130 102 314 212 93 56 165 89 198 92 4 1 7 -5 7 -11z
m-30 -528 c0 -34 -34 -90 -132 -221 -52 -68 -111 -151 -131 -185 -20 -33 -46
-69 -58 -80 -12 -10 -33 -37 -47 -59 -14 -22 -62 -83 -108 -136 -46 -53 -94
-114 -106 -137 -27 -47 -188 -241 -269 -324 -65 -67 -88 -72 -121 -25 -18 25
-23 45 -23 97 0 75 14 86 63 50 16 -12 38 -20 48 -18 19 3 76 74 181 224 69
99 359 464 471 593 39 46 72 88 72 93 0 15 132 148 147 148 7 0 13 -9 13 -20z
m2434 -256 c9 -8 16 -20 16 -25 0 -28 -32 -80 -64 -104 -31 -24 -43 -27 -83
-22 -41 4 -50 2 -75 -23 -28 -29 -33 -45 -28 -113 3 -58 -30 -155 -60 -176
-80 -56 -214 -111 -270 -111 -40 0 -70 20 -70 46 0 39 67 172 109 218 118 125
288 248 420 302 67 28 84 29 105 8z m1356 -241 c30 -16 58 -35 63 -44 14 -22
-26 -74 -81 -106 -76 -45 -40 -70 105 -72 l52 -1 7 -45 c10 -68 0 -144 -25
-197 -32 -67 -131 -171 -219 -230 -185 -125 -474 -218 -677 -218 -99 0 -114
13 -75 62 10 14 22 45 26 69 4 26 19 61 38 86 33 42 111 113 126 113 4 0 32
16 61 36 68 46 158 91 228 116 30 10 65 25 77 33 12 8 45 17 73 21 68 9 95 31
95 77 0 46 -26 75 -73 82 -71 12 -80 15 -86 35 -14 43 63 153 132 190 51 27
89 25 153 -7z m1890 -283 c76 -14 243 -59 285 -77 70 -30 109 -61 160 -127 28
-35 86 -106 129 -158 90 -106 201 -269 232 -343 48 -113 67 -162 76 -200 21
-85 51 -182 69 -217 25 -49 27 -257 4 -302 -8 -15 -15 -36 -15 -45 0 -24 -66
-157 -109 -221 -21 -31 -42 -67 -46 -80 -10 -30 -328 -348 -408 -407 -33 -24
-136 -81 -229 -128 -93 -46 -175 -89 -183 -95 -8 -6 -36 -18 -62 -25 -26 -7
-84 -27 -128 -44 -44 -17 -113 -38 -155 -47 -41 -9 -107 -27 -147 -40 -75 -25
-157 -43 -338 -74 -60 -10 -128 -23 -150 -28 -81 -21 -489 -33 -755 -22 -274
11 -355 17 -382 32 -10 5 -82 15 -160 23 -194 20 -397 44 -428 52 -14 3 -61
16 -105 28 -44 12 -114 28 -155 34 -123 20 -222 42 -275 61 -27 10 -102 31
-165 46 -225 53 -567 184 -689 263 -35 22 -68 41 -74 41 -5 0 -65 39 -134 87
-188 131 -320 284 -421 488 -79 161 -77 148 -77 455 0 263 1 278 24 345 26 76
91 212 124 260 27 38 120 153 146 180 45 47 249 152 275 142 19 -8 21 -59 5
-108 -27 -79 -174 -261 -251 -311 -26 -17 -48 -35 -48 -38 0 -4 -18 -34 -40
-66 -47 -70 -53 -114 -16 -114 30 0 151 80 235 155 34 30 66 55 71 55 6 0 38
25 71 56 l61 56 60 -58 c33 -33 68 -76 79 -97 13 -24 41 -51 77 -74 142 -91
437 -205 567 -218 38 -4 84 -14 102 -21 18 -8 63 -14 102 -14 112 0 358 37
436 66 96 35 127 40 300 54 243 18 353 35 435 69 41 16 98 35 125 42 28 6 55
15 60 19 6 4 28 13 50 20 56 18 253 112 336 161 129 75 192 149 211 247 7 31
22 72 35 90 44 59 161 105 315 122 57 7 130 19 163 27 33 9 92 19 130 23 100
10 542 10 595 0z m-3322 -109 c7 -4 21 -23 30 -41 23 -45 100 -87 193 -104 77
-15 185 -50 207 -68 8 -7 11 -41 10 -113 -3 -94 -1 -106 20 -134 27 -37 29
-77 3 -91 -29 -15 -145 -12 -204 5 -29 8 -99 19 -157 24 -160 15 -293 69 -326
132 -21 42 -6 81 62 160 124 142 142 191 71 197 -43 4 -83 -17 -167 -89 -30
-25 -65 -52 -77 -58 -30 -15 -75 -14 -98 3 -18 13 -18 15 -2 39 54 83 200 145
342 146 44 0 86 -3 93 -8z m-5625 -1095 c78 -32 198 -203 358 -511 40 -77 81
-156 91 -175 10 -19 18 -47 18 -62 0 -15 9 -46 21 -68 17 -32 22 -65 26 -163
7 -146 -5 -210 -47 -255 -35 -38 -66 -41 -142 -12 -72 27 -85 26 -207 -19 -58
-21 -173 -55 -256 -75 -123 -30 -168 -36 -253 -36 -113 0 -143 10 -184 58 -34
41 -51 87 -44 117 6 25 9 26 77 23 96 -4 101 5 59 105 -17 42 -54 114 -82 159
-28 46 -63 106 -77 133 -15 28 -59 97 -98 155 -39 58 -86 135 -104 172 l-33
67 24 27 c31 32 65 50 153 80 39 13 85 32 102 43 18 10 48 22 66 26 19 4 43
12 54 19 11 7 40 18 65 25 58 17 188 82 248 125 45 32 92 53 120 55 7 1 27 -5
45 -13z m-1136 -368 c60 -15 93 -49 218 -223 131 -183 160 -230 201 -322 39
-90 43 -134 14 -163 -90 -90 -383 174 -516 467 -63 138 -77 235 -36 246 32 9
73 7 119 -5z m10808 -718 c16 -50 -116 -241 -204 -295 -89 -53 -302 -155 -325
-155 -12 0 -30 -6 -41 -13 -25 -18 -92 -34 -175 -43 -36 -4 -83 -15 -105 -25
-22 -10 -52 -19 -67 -19 -16 0 -54 -9 -85 -19 -32 -11 -122 -27 -200 -36 -78
-9 -166 -23 -195 -32 -71 -21 -544 -31 -579 -13 -22 12 -22 13 -4 26 13 10 49
14 110 14 128 0 304 19 340 36 16 8 57 18 90 21 33 3 82 14 108 24 26 11 67
19 90 19 50 0 106 15 242 65 55 20 125 44 155 52 49 13 137 47 195 73 11 5 49
19 85 31 95 32 303 134 342 168 18 16 49 35 68 44 19 8 53 33 75 56 43 45 70
52 80 21z m-5032 -44 c67 -31 137 -59 250 -102 20 -8 113 -39 205 -69 312
-101 551 -203 654 -278 70 -50 32 -103 -67 -92 -88 10 -209 37 -239 52 -16 8
-58 19 -95 24 -85 12 -268 53 -349 79 -35 11 -71 20 -79 20 -21 0 -182 82
-239 121 -61 42 -81 65 -88 103 -4 18 -20 58 -36 88 -30 54 -31 88 -5 88 7 0
46 -15 88 -34z"/>
<path d="M1902 19718 c-32 -35 -59 -108 -72 -194 -6 -44 -17 -88 -24 -99 -7
-11 -16 -38 -20 -60 -11 -55 -42 -113 -86 -160 -60 -65 -71 -107 -79 -302 l-7
-173 -34 -35 c-33 -34 -35 -41 -39 -116 -5 -111 5 -159 38 -200 l29 -34 65 18
c85 22 95 22 109 -7 9 -20 7 -32 -11 -66 l-21 -40 33 -20 c17 -11 40 -20 49
-20 26 0 47 -27 64 -86 19 -66 41 -71 71 -16 35 64 37 90 10 131 -19 28 -26
54 -30 117 -4 44 -11 93 -17 109 -6 16 -15 103 -21 194 -11 193 -23 270 -50
323 -25 49 -24 87 7 182 14 44 29 114 35 155 5 42 18 102 29 133 11 32 20 74
20 93 0 19 9 58 20 87 26 69 25 75 -10 93 -36 19 -33 19 -58 -7z"/>
<path d="M6510 2991 c-52 -3 -101 -10 -109 -15 -8 -5 -92 -12 -187 -16 -185
-7 -213 -15 -193 -52 24 -45 133 -58 604 -68 323 -7 398 -11 435 -25 78 -29
569 -42 718 -19 43 7 43 36 -2 63 -40 25 -317 83 -474 100 -57 6 -112 16 -123
22 -23 12 -527 20 -669 10z"/>
</g>
</svg>
